<?xml version="1.0" encoding="UTF-8" standalone="no"?>
<!DOCTYPE svg PUBLIC "-//W3C//DTD SVG 1.1//EN"
 "http://www.w3.org/Graphics/SVG/1.1/DTD/svg11.dtd">
<!-- Generated by graphviz version 2.38.0 (20140413.2041)
 -->
<!-- Title: trace Pages: 1 -->
<svg width="1032pt" height="829pt"
 viewBox="0.00 0.00 1031.99 829.00" xmlns="http://www.w3.org/2000/svg" xmlns:xlink="http://www.w3.org/1999/xlink">
<g id="graph0" class="graph" transform="scale(1 1) rotate(0) translate(4 825)">
<title>trace</title>
<polygon fill="white" stroke="none" points="-4,4 -4,-825 1027.99,-825 1027.99,4 -4,4"/>
<g id="clust1" class="cluster"><title>cluster_2200</title>
<polygon fill="none" stroke="#608686" points="8,-477 8,-777 860,-777 860,-477 8,-477"/>
<text text-anchor="middle" x="434" y="-765" font-family="Times,serif" font-size="10.00">2200</text>
<text text-anchor="middle" x="434" y="-754" font-family="Times,serif" font-size="10.00">[FR&#45;RENATER Reseau National de telecommunications pour la Technologie, FR]</text>
</g>
<g id="clust2" class="cluster"><title>cluster_39729</title>
<polygon fill="none" stroke="#60baba" points="69,-8 69,-235 373,-235 373,-8 69,-8"/>
<text text-anchor="middle" x="221" y="-223" font-family="Times,serif" font-size="10.00">39729</text>
<text text-anchor="middle" x="221" y="-212" font-family="Times,serif" font-size="10.00">[REGISTER&#45;AS, IT]</text>
</g>
<g id="clust3" class="cluster"><title>cluster_3257</title>
<polygon fill="none" stroke="#60ffff" points="111,-243 111,-469 295,-469 295,-243 111,-243"/>
<text text-anchor="middle" x="203" y="-457" font-family="Times,serif" font-size="10.00">3257</text>
<text text-anchor="middle" x="203" y="-446" font-family="Times,serif" font-size="10.00">[GTT&#45;BACKBONE GTT, DE]</text>
</g>
<!-- 193.51.177.18 -->
<g id="node1" class="node"><title>193.51.177.18</title>
<ellipse fill="#608686" stroke="black" cx="94" cy="-720.5" rx="77.9862" ry="18"/>
<text text-anchor="middle" x="94" y="-716.8" font-family="Times,serif" font-size="14.00">193.51.177.18</text>
</g>
<!-- 193.51.177.185 -->
<g id="node9" class="node"><title>193.51.177.185</title>
<ellipse fill="#608686" stroke="black" cx="286" cy="-648" rx="83.6854" ry="18"/>
<text text-anchor="middle" x="286" y="-644.3" font-family="Times,serif" font-size="14.00">193.51.177.185</text>
</g>
<!-- 193.51.177.18&#45;&gt;193.51.177.185 -->
<g id="edge27" class="edge"><title>193.51.177.18&#45;&gt;193.51.177.185</title>
<path fill="none" stroke="#704070" d="M133.783,-704.892C163.446,-694 204.167,-679.048 236.027,-667.35"/>
<polygon fill="#704070" stroke="#704070" points="237.427,-670.564 245.608,-663.831 235.014,-663.993 237.427,-670.564"/>
</g>
<!-- 193.51.177.213 -->
<g id="node12" class="node"><title>193.51.177.213</title>
<ellipse fill="#608686" stroke="black" cx="100" cy="-648" rx="83.6854" ry="18"/>
<text text-anchor="middle" x="100" y="-644.3" font-family="Times,serif" font-size="14.00">193.51.177.213</text>
</g>
<!-- 193.51.177.18&#45;&gt;193.51.177.213 -->
<g id="edge5" class="edge"><title>193.51.177.18&#45;&gt;193.51.177.213</title>
<path fill="none" stroke="#a07070" d="M95.4524,-702.434C96.1132,-694.67 96.912,-685.284 97.6545,-676.56"/>
<polygon fill="#a07070" stroke="#a07070" points="101.159,-676.66 98.5193,-666.399 94.1838,-676.066 101.159,-676.66"/>
</g>
<!-- 193.49.241.49 -->
<g id="node2" class="node"><title>193.49.241.49</title>
<ellipse fill="#608686" stroke="black" cx="486" cy="-648" rx="77.9862" ry="18"/>
<text text-anchor="middle" x="486" y="-644.3" font-family="Times,serif" font-size="14.00">193.49.241.49</text>
</g>
<!-- 193.51.152.50 80/tcp -->
<g id="node6" class="node"><title>193.51.152.50 80/tcp</title>
<polygon fill="red" stroke="black" points="626.688,-568.544 626.688,-583.456 556.576,-594 457.424,-594 387.312,-583.456 387.312,-568.544 457.424,-558 556.576,-558 626.688,-568.544"/>
<text text-anchor="middle" x="507" y="-572.3" font-family="Times,serif" font-size="14.00">193.51.152.50 80/tcp</text>
</g>
<!-- 193.49.241.49&#45;&gt;193.51.152.50 80/tcp -->
<g id="edge41" class="edge"><title>193.49.241.49&#45;&gt;193.51.152.50 80/tcp</title>
<path fill="none" stroke="#702040" d="M491.191,-629.697C493.531,-621.898 496.347,-612.509 498.951,-603.829"/>
<polygon fill="#702040" stroke="#702040" points="502.348,-604.688 501.869,-594.104 495.643,-602.677 502.348,-604.688"/>
</g>
<!-- 193.51.154.10 -->
<g id="node13" class="node"><title>193.51.154.10</title>
<ellipse fill="#608686" stroke="black" cx="723" cy="-576" rx="77.9862" ry="18"/>
<text text-anchor="middle" x="723" y="-572.3" font-family="Times,serif" font-size="14.00">193.51.154.10</text>
</g>
<!-- 193.49.241.49&#45;&gt;193.51.154.10 -->
<g id="edge20" class="edge"><title>193.49.241.49&#45;&gt;193.51.154.10</title>
<path fill="none" stroke="#a02020" d="M531.977,-633.42C570.609,-622.01 625.951,-605.664 667.132,-593.501"/>
<polygon fill="#a02020" stroke="#a02020" points="668.148,-596.851 676.747,-590.661 666.165,-590.137 668.148,-596.851"/>
</g>
<!-- 194.199.227.80 -->
<g id="node3" class="node"><title>194.199.227.80</title>
<polygon fill="green" stroke="black" points="376,-702.5 376,-738.5 654,-738.5 654,-702.5 376,-702.5"/>
<text text-anchor="middle" x="440.5" y="-716.8" font-family="Times,serif" font-size="14.00">194.199.227.80</text>
<polyline fill="none" stroke="black" points="505,-702.5 505,-738.5 "/>
<text text-anchor="middle" x="540.5" y="-716.8" font-family="Times,serif" font-size="14.00">http SA</text>
<polyline fill="none" stroke="black" points="576,-702.5 576,-738.5 "/>
<text text-anchor="middle" x="615" y="-716.8" font-family="Times,serif" font-size="14.00">https SA</text>
</g>
<!-- 194.199.13.174 -->
<g id="node4" class="node"><title>194.199.13.174</title>
<ellipse fill="#608686" stroke="black" cx="274" cy="-720.5" rx="83.6854" ry="18"/>
<text text-anchor="middle" x="274" y="-716.8" font-family="Times,serif" font-size="14.00">194.199.13.174</text>
</g>
<!-- 194.199.13.174&#45;&gt;193.49.241.49 -->
<g id="edge19" class="edge"><title>194.199.13.174&#45;&gt;193.49.241.49</title>
<path fill="none" stroke="#a02020" d="M313.324,-704.549C346.162,-693.158 393.248,-677.477 430.004,-665.68"/>
<polygon fill="#a02020" stroke="#a02020" points="431.132,-668.994 439.592,-662.617 429.002,-662.326 431.132,-668.994"/>
</g>
<!-- 194.199.13.174&#45;&gt;193.49.241.49 -->
<g id="edge40" class="edge"><title>194.199.13.174&#45;&gt;193.49.241.49</title>
<path fill="none" stroke="#702040" d="M321.388,-705.571C356.074,-694.531 402.874,-679.02 437.754,-667.032"/>
<polygon fill="#702040" stroke="#702040" points="438.946,-670.323 447.255,-663.75 436.661,-663.706 438.946,-670.323"/>
</g>
<!-- 193.51.152.50 -->
<g id="node5" class="node"><title>193.51.152.50</title>
<polygon fill="green" stroke="black" points="564,-485.5 564,-521.5 762,-521.5 762,-485.5 564,-485.5"/>
<text text-anchor="middle" x="624" y="-499.8" font-family="Times,serif" font-size="14.00">193.51.152.50</text>
<polyline fill="none" stroke="black" points="684,-485.5 684,-521.5 "/>
<text text-anchor="middle" x="723" y="-499.8" font-family="Times,serif" font-size="14.00">https SA</text>
</g>
<!-- 193.51.177.144 -->
<g id="node7" class="node"><title>193.51.177.144</title>
<ellipse fill="#608686" stroke="black" cx="203" cy="-503.5" rx="83.6854" ry="18"/>
<text text-anchor="middle" x="203" y="-499.8" font-family="Times,serif" font-size="14.00">193.51.177.144</text>
</g>
<!-- 77.67.123.209 -->
<g id="node17" class="node"><title>77.67.123.209</title>
<ellipse fill="#60ffff" stroke="black" cx="203" cy="-413" rx="77.9862" ry="18"/>
<text text-anchor="middle" x="203" y="-409.3" font-family="Times,serif" font-size="14.00">77.67.123.209</text>
</g>
<!-- 193.51.177.144&#45;&gt;77.67.123.209 -->
<g id="edge8" class="edge"><title>193.51.177.144&#45;&gt;77.67.123.209</title>
<path fill="none" stroke="#a07070" d="M197.542,-485.436C196.168,-472.948 195.89,-455.744 196.708,-441.348"/>
<polygon fill="#a07070" stroke="#a07070" points="200.227,-441.262 197.548,-431.011 193.25,-440.695 200.227,-441.262"/>
</g>
<!-- 193.51.177.144&#45;&gt;77.67.123.209 -->
<g id="edge30" class="edge"><title>193.51.177.144&#45;&gt;77.67.123.209</title>
<path fill="none" stroke="#704070" d="M208.458,-485.436C209.832,-472.948 210.11,-455.744 209.292,-441.348"/>
<polygon fill="#704070" stroke="#704070" points="212.75,-440.695 208.452,-431.011 205.773,-441.262 212.75,-440.695"/>
</g>
<!-- 194.199.227.254 -->
<g id="node8" class="node"><title>194.199.227.254</title>
<ellipse fill="#608686" stroke="black" cx="762" cy="-720.5" rx="89.8845" ry="18"/>
<text text-anchor="middle" x="762" y="-716.8" font-family="Times,serif" font-size="14.00">194.199.227.254</text>
</g>
<!-- 10.230.12.197 -->
<g id="node21" class="node"><title>10.230.12.197</title>
<ellipse fill="none" stroke="black" cx="946" cy="-648" rx="77.9862" ry="18"/>
<text text-anchor="middle" x="946" y="-644.3" font-family="Times,serif" font-size="14.00">10.230.12.197</text>
</g>
<!-- 194.199.227.254&#45;&gt;10.230.12.197 -->
<g id="edge2" class="edge"><title>194.199.227.254&#45;&gt;10.230.12.197</title>
<path fill="none" stroke="#a07070" d="M787.273,-703.149C813.223,-691.746 852.774,-676.597 886.301,-665.223"/>
<polygon fill="#a07070" stroke="#a07070" points="887.658,-668.459 896.034,-661.972 885.441,-661.82 887.658,-668.459"/>
</g>
<!-- 194.199.227.254&#45;&gt;10.230.12.197 -->
<g id="edge17" class="edge"><title>194.199.227.254&#45;&gt;10.230.12.197</title>
<path fill="none" stroke="#a02020" d="M797.116,-703.854C824.484,-692.872 862.782,-678.169 893.727,-666.749"/>
<polygon fill="#a02020" stroke="#a02020" points="895.31,-669.897 903.492,-663.166 892.899,-663.325 895.31,-669.897"/>
</g>
<!-- 194.199.227.254&#45;&gt;10.230.12.197 -->
<g id="edge24" class="edge"><title>194.199.227.254&#45;&gt;10.230.12.197</title>
<path fill="none" stroke="#704070" d="M806.187,-704.721C835.365,-694.056 873.338,-679.565 902.393,-668.034"/>
<polygon fill="#704070" stroke="#704070" points="903.89,-671.205 911.88,-664.247 901.295,-664.704 903.89,-671.205"/>
</g>
<!-- 194.199.227.254&#45;&gt;10.230.12.197 -->
<g id="edge38" class="edge"><title>194.199.227.254&#45;&gt;10.230.12.197</title>
<path fill="none" stroke="#702040" d="M814.104,-705.823C845.6,-695.4 884.172,-680.887 911.938,-669.138"/>
<polygon fill="#702040" stroke="#702040" points="913.483,-672.283 921.279,-665.108 910.71,-665.856 913.483,-672.283"/>
</g>
<!-- 193.51.177.197 -->
<g id="node10" class="node"><title>193.51.177.197</title>
<ellipse fill="#608686" stroke="black" cx="286" cy="-576" rx="83.6854" ry="18"/>
<text text-anchor="middle" x="286" y="-572.3" font-family="Times,serif" font-size="14.00">193.51.177.197</text>
</g>
<!-- 193.51.177.185&#45;&gt;193.51.177.197 -->
<g id="edge28" class="edge"><title>193.51.177.185&#45;&gt;193.51.177.197</title>
<path fill="none" stroke="#704070" d="M286,-629.697C286,-621.983 286,-612.712 286,-604.112"/>
<polygon fill="#704070" stroke="#704070" points="289.5,-604.104 286,-594.104 282.5,-604.104 289.5,-604.104"/>
</g>
<!-- 193.51.177.197&#45;&gt;193.51.177.144 -->
<g id="edge29" class="edge"><title>193.51.177.197&#45;&gt;193.51.177.144</title>
<path fill="none" stroke="#704070" d="M266.33,-558.292C255.58,-549.161 242.098,-537.71 230.339,-527.722"/>
<polygon fill="#704070" stroke="#704070" points="232.416,-524.894 222.529,-521.088 227.884,-530.229 232.416,-524.894"/>
</g>
<!-- 193.51.177.217 -->
<g id="node11" class="node"><title>193.51.177.217</title>
<ellipse fill="#608686" stroke="black" cx="100" cy="-576" rx="83.6854" ry="18"/>
<text text-anchor="middle" x="100" y="-572.3" font-family="Times,serif" font-size="14.00">193.51.177.217</text>
</g>
<!-- 193.51.177.217&#45;&gt;193.51.177.144 -->
<g id="edge7" class="edge"><title>193.51.177.217&#45;&gt;193.51.177.144</title>
<path fill="none" stroke="#a07070" d="M123.889,-558.649C137.799,-549.128 155.524,-536.995 170.67,-526.629"/>
<polygon fill="#a07070" stroke="#a07070" points="172.965,-529.299 179.24,-520.763 169.011,-523.523 172.965,-529.299"/>
</g>
<!-- 193.51.177.213&#45;&gt;193.51.177.217 -->
<g id="edge6" class="edge"><title>193.51.177.213&#45;&gt;193.51.177.217</title>
<path fill="none" stroke="#a07070" d="M100,-629.697C100,-621.983 100,-612.712 100,-604.112"/>
<polygon fill="#a07070" stroke="#a07070" points="103.5,-604.104 100,-594.104 96.5001,-604.104 103.5,-604.104"/>
</g>
<!-- 193.51.154.10&#45;&gt;193.51.152.50 -->
<g id="edge21" class="edge"><title>193.51.154.10&#45;&gt;193.51.152.50:T443</title>
<path fill="none" stroke="#a02020" d="M723,-557.814C723,-550.278 723,-541.101 723,-532.058"/>
<polygon fill="#a02020" stroke="#a02020" points="726.5,-532 723,-522 719.5,-532 726.5,-532"/>
</g>
<!-- 81.88.51.253 -->
<g id="node14" class="node"><title>81.88.51.253</title>
<ellipse fill="#60baba" stroke="black" cx="203" cy="-179" rx="72.2875" ry="18"/>
<text text-anchor="middle" x="203" y="-175.3" font-family="Times,serif" font-size="14.00">81.88.51.253</text>
</g>
<!-- 81.88.54.250 -->
<g id="node16" class="node"><title>81.88.54.250</title>
<ellipse fill="#60baba" stroke="black" cx="203" cy="-107" rx="72.2875" ry="18"/>
<text text-anchor="middle" x="203" y="-103.3" font-family="Times,serif" font-size="14.00">81.88.54.250</text>
</g>
<!-- 81.88.51.253&#45;&gt;81.88.54.250 -->
<g id="edge12" class="edge"><title>81.88.51.253&#45;&gt;81.88.54.250</title>
<path fill="none" stroke="#a07070" d="M197.122,-161.055C196.304,-153.346 196.061,-144.027 196.395,-135.364"/>
<polygon fill="#a07070" stroke="#a07070" points="199.894,-135.491 197.087,-125.275 192.911,-135.012 199.894,-135.491"/>
</g>
<!-- 81.88.51.253&#45;&gt;81.88.54.250 -->
<g id="edge34" class="edge"><title>81.88.51.253&#45;&gt;81.88.54.250</title>
<path fill="none" stroke="#704070" d="M208.878,-161.055C209.696,-153.346 209.939,-144.027 209.605,-135.364"/>
<polygon fill="#704070" stroke="#704070" points="213.089,-135.012 208.913,-125.275 206.106,-135.491 213.089,-135.012"/>
</g>
<!-- 81.88.48.95 -->
<g id="node15" class="node"><title>81.88.48.95</title>
<polygon fill="green" stroke="black" points="77.5,-16.5 77.5,-52.5 328.5,-52.5 328.5,-16.5 77.5,-16.5"/>
<text text-anchor="middle" x="128.5" y="-30.8" font-family="Times,serif" font-size="14.00">81.88.48.95</text>
<polyline fill="none" stroke="black" points="179.5,-16.5 179.5,-52.5 "/>
<text text-anchor="middle" x="215" y="-30.8" font-family="Times,serif" font-size="14.00">http SA</text>
<polyline fill="none" stroke="black" points="250.5,-16.5 250.5,-52.5 "/>
<text text-anchor="middle" x="289.5" y="-30.8" font-family="Times,serif" font-size="14.00">https SA</text>
</g>
<!-- 81.88.48.95&#45;&gt;81.88.48.95 -->
<g id="edge14" class="edge"><title>81.88.48.95&#45;&gt;81.88.48.95:T443</title>
<path fill="none" stroke="#a07070" d="M328.94,-45.0337C339.75,-42.7925 346.5,-39.2812 346.5,-34.5 346.5,-27.0073 344.421,-22.6335 338.784,-21.3787"/>
<polygon fill="#a07070" stroke="#a07070" points="338.673,-17.8802 328.752,-21.6007 338.828,-24.8785 338.673,-17.8802"/>
</g>
<!-- 81.88.48.95&#45;&gt;81.88.48.95 -->
<g id="edge36" class="edge"><title>81.88.48.95&#45;&gt;81.88.48.95:T80</title>
<path fill="none" stroke="#704070" d="M328.94,-45.0337C339.75,-42.7925 346.5,-39.2812 346.5,-34.5 346.5,-21.5137 302.951,-17.8965 260.729,-23.6484"/>
<polygon fill="#704070" stroke="#704070" points="259.97,-20.2241 250.623,-25.2124 261.04,-27.1417 259.97,-20.2241"/>
</g>
<!-- 81.88.54.250&#45;&gt;81.88.48.95 -->
<g id="edge13" class="edge"><title>81.88.54.250&#45;&gt;81.88.48.95</title>
<path fill="none" stroke="#a07070" d="M197.122,-88.9339C196.304,-81.1695 196.061,-71.7842 196.395,-63.0597"/>
<polygon fill="#a07070" stroke="#a07070" points="199.899,-63.1135 197.087,-52.8987 192.915,-62.6376 199.899,-63.1135"/>
</g>
<!-- 81.88.54.250&#45;&gt;81.88.48.95 -->
<g id="edge35" class="edge"><title>81.88.54.250&#45;&gt;81.88.48.95</title>
<path fill="none" stroke="#704070" d="M208.878,-88.9339C209.696,-81.1695 209.939,-71.7842 209.605,-63.0597"/>
<polygon fill="#704070" stroke="#704070" points="213.085,-62.6376 208.913,-52.8987 206.101,-63.1135 213.085,-62.6376"/>
</g>
<!-- 89.149.182.221 -->
<g id="node18" class="node"><title>89.149.182.221</title>
<ellipse fill="#60ffff" stroke="black" cx="203" cy="-341" rx="83.6854" ry="18"/>
<text text-anchor="middle" x="203" y="-337.3" font-family="Times,serif" font-size="14.00">89.149.182.221</text>
</g>
<!-- 77.67.123.209&#45;&gt;89.149.182.221 -->
<g id="edge9" class="edge"><title>77.67.123.209&#45;&gt;89.149.182.221</title>
<path fill="none" stroke="#a07070" d="M197.084,-394.697C196.289,-386.983 196.062,-377.712 196.405,-369.112"/>
<polygon fill="#a07070" stroke="#a07070" points="199.898,-369.324 197.105,-359.104 192.915,-368.836 199.898,-369.324"/>
</g>
<!-- 77.67.123.209&#45;&gt;89.149.182.221 -->
<g id="edge31" class="edge"><title>77.67.123.209&#45;&gt;89.149.182.221</title>
<path fill="none" stroke="#704070" d="M208.916,-394.697C209.711,-386.983 209.938,-377.712 209.595,-369.112"/>
<polygon fill="#704070" stroke="#704070" points="213.085,-368.836 208.895,-359.104 206.102,-369.324 213.085,-368.836"/>
</g>
<!-- 77.67.90.194 -->
<g id="node19" class="node"><title>77.67.90.194</title>
<ellipse fill="#60ffff" stroke="black" cx="203" cy="-269" rx="72.2875" ry="18"/>
<text text-anchor="middle" x="203" y="-265.3" font-family="Times,serif" font-size="14.00">77.67.90.194</text>
</g>
<!-- 89.149.182.221&#45;&gt;77.67.90.194 -->
<g id="edge10" class="edge"><title>89.149.182.221&#45;&gt;77.67.90.194</title>
<path fill="none" stroke="#a07070" d="M197.084,-322.697C196.289,-314.983 196.062,-305.712 196.405,-297.112"/>
<polygon fill="#a07070" stroke="#a07070" points="199.898,-297.324 197.105,-287.104 192.915,-296.836 199.898,-297.324"/>
</g>
<!-- 89.149.182.221&#45;&gt;77.67.90.194 -->
<g id="edge32" class="edge"><title>89.149.182.221&#45;&gt;77.67.90.194</title>
<path fill="none" stroke="#704070" d="M208.916,-322.697C209.711,-314.983 209.938,-305.712 209.595,-297.112"/>
<polygon fill="#704070" stroke="#704070" points="213.085,-296.836 208.895,-287.104 206.102,-297.324 213.085,-296.836"/>
</g>
<!-- 77.67.90.194&#45;&gt;81.88.51.253 -->
<g id="edge11" class="edge"><title>77.67.90.194&#45;&gt;81.88.51.253</title>
<path fill="none" stroke="#a07070" d="M197.542,-251.033C196.177,-238.695 195.893,-221.727 196.693,-207.469"/>
<polygon fill="#a07070" stroke="#a07070" points="200.204,-207.463 197.515,-197.215 193.227,-206.904 200.204,-207.463"/>
</g>
<!-- 77.67.90.194&#45;&gt;81.88.51.253 -->
<g id="edge33" class="edge"><title>77.67.90.194&#45;&gt;81.88.51.253</title>
<path fill="none" stroke="#704070" d="M208.458,-251.033C209.823,-238.695 210.107,-221.727 209.307,-207.469"/>
<polygon fill="#704070" stroke="#704070" points="212.773,-206.904 208.485,-197.215 205.796,-207.463 212.773,-206.904"/>
</g>
<!-- 10.255.255.254 -->
<g id="node20" class="node"><title>10.255.255.254</title>
<ellipse fill="none" stroke="black" cx="762" cy="-803" rx="83.6854" ry="18"/>
<text text-anchor="middle" x="762" y="-799.3" font-family="Times,serif" font-size="14.00">10.255.255.254</text>
</g>
<!-- 10.255.255.254&#45;&gt;194.199.227.80 -->
<g id="edge15" class="edge"><title>10.255.255.254&#45;&gt;194.199.227.80:T80</title>
<path fill="none" stroke="#a04040" d="M686.562,-794.999C629.543,-787.787 558.627,-773.989 543.797,-749.156"/>
<polygon fill="#a04040" stroke="#a04040" points="547.144,-748.132 541,-739.5 540.42,-750.079 547.144,-748.132"/>
</g>
<!-- 10.255.255.254&#45;&gt;194.199.227.80 -->
<g id="edge22" class="edge"><title>10.255.255.254&#45;&gt;194.199.227.80:T443</title>
<path fill="none" stroke="#7070a0" d="M697.308,-791.455C681.845,-787.677 668.273,-782.868 663,-777 656.776,-770.073 662.218,-742.849 660.526,-728.875"/>
<polygon fill="#7070a0" stroke="#7070a0" points="663.428,-726.92 655,-720.5 657.586,-730.775 663.428,-726.92"/>
</g>
<!-- 10.255.255.254&#45;&gt;194.199.227.254 -->
<g id="edge1" class="edge"><title>10.255.255.254&#45;&gt;194.199.227.254</title>
<path fill="none" stroke="#a07070" d="M745.222,-785.32C741.628,-774.599 740.824,-760.432 742.811,-748.17"/>
<polygon fill="#a07070" stroke="#a07070" points="746.217,-748.975 745.137,-738.435 739.409,-747.348 746.217,-748.975"/>
</g>
<!-- 10.255.255.254&#45;&gt;194.199.227.254 -->
<g id="edge16" class="edge"><title>10.255.255.254&#45;&gt;194.199.227.254</title>
<path fill="none" stroke="#a02020" d="M756.364,-784.928C755.214,-774.362 754.955,-760.563 755.584,-748.536"/>
<polygon fill="#a02020" stroke="#a02020" points="759.075,-748.79 756.367,-738.547 752.096,-748.243 759.075,-748.79"/>
</g>
<!-- 10.255.255.254&#45;&gt;194.199.227.254 -->
<g id="edge23" class="edge"><title>10.255.255.254&#45;&gt;194.199.227.254</title>
<path fill="none" stroke="#704070" d="M767.636,-784.928C768.786,-774.362 769.045,-760.563 768.416,-748.536"/>
<polygon fill="#704070" stroke="#704070" points="771.904,-748.243 767.633,-738.547 764.925,-748.79 771.904,-748.243"/>
</g>
<!-- 10.255.255.254&#45;&gt;194.199.227.254 -->
<g id="edge37" class="edge"><title>10.255.255.254&#45;&gt;194.199.227.254</title>
<path fill="none" stroke="#702040" d="M778.778,-785.32C782.372,-774.599 783.176,-760.432 781.189,-748.17"/>
<polygon fill="#702040" stroke="#702040" points="784.591,-747.348 778.863,-738.435 777.783,-748.975 784.591,-747.348"/>
</g>
<!-- 10.230.12.197&#45;&gt;194.199.13.174 -->
<g id="edge18" class="edge"><title>10.230.12.197&#45;&gt;194.199.13.174</title>
<path fill="none" stroke="#a02020" d="M888.413,-660.222C877.31,-662.414 865.8,-664.496 855,-666 635.649,-696.546 577.623,-673.476 358,-702 351.432,-702.853 344.627,-703.871 337.856,-704.982"/>
<polygon fill="#a02020" stroke="#a02020" points="337.262,-701.532 327.994,-706.666 338.441,-708.433 337.262,-701.532"/>
</g>
<!-- 10.230.12.197&#45;&gt;194.199.13.174 -->
<g id="edge39" class="edge"><title>10.230.12.197&#45;&gt;194.199.13.174</title>
<path fill="none" stroke="#702040" d="M896.846,-662.027C888.92,-663.535 880.776,-664.917 873,-666 653.649,-696.546 595.623,-673.476 376,-702 366.347,-703.254 356.18,-704.865 346.143,-706.6"/>
<polygon fill="#702040" stroke="#702040" points="345.409,-703.176 336.174,-708.368 346.631,-710.068 345.409,-703.176"/>
</g>
<!-- unk0 -->
<g id="node22" class="node"><title>unk0</title>
<ellipse fill="none" stroke="black" cx="989" cy="-576" rx="34.394" ry="18"/>
<text text-anchor="middle" x="989" y="-572.3" font-family="Times,serif" font-size="14.00">unk0</text>
</g>
<!-- 10.230.12.197&#45;&gt;unk0 -->
<g id="edge3" class="edge"><title>10.230.12.197&#45;&gt;unk0</title>
<path fill="none" stroke="#a07070" d="M956.409,-630.055C961.608,-621.592 967.998,-611.19 973.738,-601.845"/>
<polygon fill="#a07070" stroke="#a07070" points="976.731,-603.66 978.983,-593.307 970.766,-599.996 976.731,-603.66"/>
</g>
<!-- unk1 -->
<g id="node23" class="node"><title>unk1</title>
<ellipse fill="none" stroke="black" cx="902" cy="-576" rx="34.394" ry="18"/>
<text text-anchor="middle" x="902" y="-572.3" font-family="Times,serif" font-size="14.00">unk1</text>
</g>
<!-- 10.230.12.197&#45;&gt;unk1 -->
<g id="edge25" class="edge"><title>10.230.12.197&#45;&gt;unk1</title>
<path fill="none" stroke="#704070" d="M935.349,-630.055C930.029,-621.592 923.491,-611.19 917.617,-601.845"/>
<polygon fill="#704070" stroke="#704070" points="920.535,-599.911 912.25,-593.307 914.609,-603.636 920.535,-599.911"/>
</g>
<!-- unk0&#45;&gt;193.51.177.18 -->
<g id="edge4" class="edge"><title>unk0&#45;&gt;193.51.177.18</title>
<path fill="none" stroke="#a07070" d="M962.64,-587.712C956.869,-589.909 950.762,-592.122 945,-594 827.33,-632.357 798.041,-645.42 676,-666 458.49,-702.68 399.558,-672.192 181,-702 173.57,-703.013 165.821,-704.274 158.141,-705.651"/>
<polygon fill="#a07070" stroke="#a07070" points="157.31,-702.246 148.12,-707.518 158.592,-709.127 157.31,-702.246"/>
</g>
<!-- unk1&#45;&gt;193.51.177.18 -->
<g id="edge26" class="edge"><title>unk1&#45;&gt;193.51.177.18</title>
<path fill="none" stroke="#704070" d="M877.318,-588.803C872.935,-590.679 868.373,-592.494 864,-594 738.025,-637.376 704.378,-643.845 573,-666 400.481,-695.093 354.118,-676.713 181,-702 173.686,-703.068 166.058,-704.351 158.49,-705.73"/>
<polygon fill="#704070" stroke="#704070" points="157.789,-702.3 148.608,-707.588 159.082,-709.18 157.789,-702.3"/>
</g>
</g>
</svg>
